# Blender v2.92.0 OBJ File: 'brickwall.blend'
# www.blender.org
mtllib brickwall.mtl
o Cube
v 1.000000 -1.000000 -1.000000
v 1.000000 1.000000 1.000000
v 1.000000 -1.000000 1.000000
v -1.000000 -1.000000 -1.000000
v -1.000000 1.000000 1.000000
v -1.000000 -1.000000 1.000000
v 0.993593 1.014275 0.996912
v 1.000000 5.041016 1.000000
v -1.000000 5.041016 1.000000
v 1.000000 -1.000000 -8.383560
v -1.000000 -1.000000 -8.383560
v 1.000000 8.963544 1.000000
v -1.000000 8.963544 1.000000
v 1.000000 8.963544 -1.000000
v -1.000000 8.963544 -1.000000
v -1.000000 8.963544 -8.383560
v 1.000000 8.963544 -8.383560
v 1.000000 -1.000000 -8.976172
v -1.000000 -1.000000 -8.976172
v 1.000000 1.000000 -8.976172
v -1.000000 1.000000 -8.976172
v -1.000000 5.041016 -8.976172
v 1.000000 5.041016 -8.976172
v -1.000000 8.963544 -8.976172
v 1.000000 8.963544 -8.976172
vt 0.060404 0.208952
vt 0.000718 0.008558
vt 0.060120 0.008474
vt 0.200956 0.393900
vt 0.200099 0.799480
vt 0.000225 0.393476
vt -0.000199 0.393876
vt 0.199794 -0.000187
vt 0.200532 0.393500
vt 0.799087 0.999248
vt 0.058968 0.999541
vt -0.000515 0.799088
vt 0.998857 0.391447
vt 1.000782 0.796510
vt 0.202221 1.000785
vt 0.054510 1.001098
vt -0.005002 0.800653
vt 0.054401 0.800621
vt 0.800239 0.007426
vt 1.000716 0.007142
vt 0.800523 0.207904
vt 1.001000 0.207620
vt 0.001001 0.209036
vt 0.199675 1.000211
vt -0.001056 0.999787
vt -0.000632 0.799056
vt 0.001057 -0.000211
vt 0.201788 0.000213
vt 0.000938 1.000187
vt 0.000562 0.799456
vt 0.201669 0.999811
vt 0.201293 0.799079
vt -0.000938 0.000189
vt 0.058572 0.000808
vt 0.798691 0.000514
vt -0.000675 0.394021
vt 0.999169 0.000435
vt 0.999325 0.393624
vt 0.999485 0.798692
vt 0.999565 0.999169
vt -0.000831 0.000831
vt -0.000435 0.999565
vt 0.001746 1.001738
vt 0.000793 0.801263
vt -0.001132 0.396200
vt -0.003001 0.003015
vt 0.197475 0.002062
vt 1.001735 0.996985
vt 0.942333 0.997267
vt 0.937586 -0.001455
vt 0.996988 -0.001738
vt 0.794521 0.800218
vt 0.994998 0.800109
vt 0.794630 1.000696
vt 0.995107 1.000587
vt -0.004893 1.001131
vn 0.0000 -1.0000 0.0000
vn 0.0000 0.0000 -1.0000
vn 0.0000 0.0000 1.0000
vn 1.0000 0.0000 0.0000
vn -1.0000 0.0000 0.0000
vn 0.0000 1.0000 0.0000
usemtl Material
s off
f 11/1/1 18/2/1 10/3/1
f 23/4/2 20/5/2 22/6/2
f 8/7/3 13/8/3 9/9/3
f 1/10/4 10/11/4 20/12/4
f 22/13/5 21/14/5 4/15/5
f 17/16/6 24/17/6 16/18/6
f 10/3/1 1/19/1 11/1/1
f 1/19/1 3/20/1 4/21/1
f 11/1/1 1/19/1 4/21/1
f 3/20/1 6/22/1 4/21/1
f 11/1/1 19/23/1 18/2/1
f 18/24/2 19/25/2 21/26/2
f 22/6/2 24/27/2 25/28/2
f 18/24/2 21/26/2 20/5/2
f 21/26/2 22/6/2 20/5/2
f 25/28/2 23/4/2 22/6/2
f 3/29/3 2/30/3 6/31/3
f 2/30/3 8/7/3 5/32/3
f 6/31/3 2/30/3 5/32/3
f 8/7/3 12/33/3 13/8/3
f 9/9/3 5/32/3 8/7/3
f 17/34/4 14/35/4 23/36/4
f 14/35/4 12/37/4 8/38/4
f 8/38/4 2/39/4 1/10/4
f 2/39/4 3/40/4 1/10/4
f 8/38/4 1/10/4 23/36/4
f 14/35/4 8/38/4 23/36/4
f 23/36/4 25/41/4 17/34/4
f 10/11/4 18/42/4 20/12/4
f 20/12/4 23/36/4 1/10/4
f 4/15/5 6/43/5 5/44/5
f 9/45/5 13/46/5 15/47/5
f 4/15/5 5/44/5 9/45/5
f 21/14/5 19/48/5 11/49/5
f 11/49/5 4/15/5 21/14/5
f 4/15/5 9/45/5 22/13/5
f 9/45/5 15/47/5 22/13/5
f 15/47/5 16/50/5 22/13/5
f 16/50/5 24/51/5 22/13/5
f 16/18/6 15/52/6 17/16/6
f 15/52/6 13/53/6 14/54/6
f 17/16/6 15/52/6 14/54/6
f 13/53/6 12/55/6 14/54/6
f 17/16/6 25/56/6 24/17/6
l 2 7
